<svg width="52" height="71" viewBox="0 0 52 71" fill="none" xmlns="http://www.w3.org/2000/svg">
<path d="M26.2776 42C33.3858 42 39.1665 35.721 39.1665 28C39.1665 20.279 33.3858 14 26.2776 14C19.1693 14 13.3887 20.279 13.3887 28C13.3887 35.721 19.1693 42 26.2776 42ZM26.2776 21C29.8317 21 32.722 24.1395 32.722 28C32.722 31.8605 29.8317 35 26.2776 35C22.7234 35 19.8331 31.8605 19.8331 28C19.8331 24.1395 22.7234 21 26.2776 21Z" fill="#0D5C63"/>
<path d="M24.441 70.3403C24.977 70.7693 25.6191 71 26.2777 71C26.9362 71 27.5784 70.7693 28.1143 70.3403C29.077 69.577 51.7026 51.2624 51.6107 28.4002C51.6107 12.7411 40.2457 0 26.2777 0C12.3097 0 0.944615 12.7411 0.944615 28.3825C0.852782 51.2624 23.4784 69.577 24.441 70.3403ZM26.2777 7.10006C36.7561 7.10006 45.2775 16.6532 45.2775 28.418C45.344 44.173 31.3823 58.3199 26.2777 62.9598C21.1762 58.3163 7.21138 44.1659 7.27788 28.4002C7.27788 16.6532 15.7993 7.10006 26.2777 7.10006Z" fill="#0D5C63"/>
</svg>
